<svg width="732" height="123" xmlns="http://www.w3.org/2000/svg"><g fill="none" fill-rule="evenodd"><path fill="#FFF" d="M43.2 51.4H14.4V25H.6v64.6h13.8V64.3h28.8v25.3h13.7V25H43.2m114.6-.2h-30.6v64.7H141V71.1h16.7c7.4 0 13.6-2.5 18-7.2 3.9-4.2 6-9.8 6-15.9 0-11.2-7.5-23.2-23.9-23.2zm10.3 23.4c0 2.7-.9 5.1-2.6 7-1.9 2.1-4.5 3.1-7.8 3.1H141V38h16.7c7.2 0 10.4 5.3 10.4 10.2zm183.8 13.7c0 10.4-5.2 16.3-14.3 16.3-9.7 0-15.2-5.9-15.2-16.3V25h-13.7v36.9c0 21.4 15.5 29 28.8 29 17.3 0 28.1-11.1 28.1-29V25h-13.7v36.9zm51.6 10l-18.2-47h-15.4l26.6 64.3.2.6h13.6l26.9-64.9h-15.4M441 89.5h48.9V75.9h-35.1V63.7h33.9V50.8h-33.9V38.3h35.1V24.9H441m159 48.3c-4.2 0-8.4 2.9-8.4 8.4 0 3.2 1.5 5.2 2.7 6.3 1.5 1.3 3.6 2.1 5.7 2.1 4.2 0 8.4-2.9 8.4-8.4s-4.2-8.4-8.4-8.4z"/><path d="M643.9 49.2c-7.9-.9-13.1-2.5-13.1-6.9 0-4.5 4.6-7.3 12-7.3 6.6 0 12.1 3.4 14 6.5l.5.8 11.1-5.7-.4-.9c-4.2-8.5-13-13-25.5-13-12.6.1-25.2 6.1-25.2 19.3 0 14.9 12.9 18.5 25.5 20 9.3 1 13.6 3.6 13.6 8.2 0 7.8-10.3 8.4-13.4 8.4-8.1 0-14.4-3.5-16.7-9.3l-.4-1-11.6 6 .3.8c4.4 10.8 13.6 16 28.2 16 13.2 0 27.3-5.5 27.3-21-.1-15.5-12.7-19.2-26.2-20.9z" fill="#ED1B2F"/><path fill="#FFF" d="M92.1 50.5L75.7 25.3h-16l25.9 37.6v26.3h13.1V62.9l25.4-37.6H108m467.7 25.3l-16.4-25.3h-16l25.8 37.6v26.3h13.2V62.9l26.6-37.6h-16.1"/><path fill="#ED1B2F" d="M699.3 56.2L728.5 25h-17.7l-22.5 24.8V25h-13.8v64.5h13.8V63.3l25.2 26.5h18"/><path d="M548.6 46.6c0-14.6-12-21.4-23.2-21.4h-30.5v64.1H508v-21h10.4l18.6 21h16.5l-20.2-22.5c9.7-2.5 15.3-9.7 15.3-20.2zm-13.2.3c0 4.3-2.6 9.4-10.1 9.4H508V37.6h17.3c7-.1 10.1 4.6 10.1 9.3z" fill="#FFF"/><g fill="#ED1B2F"><path d="M212 49.7c-.5 2.4-.8 4.9-.8 7.4 0 1.9.2 3.7.4 5.5l7.3-2.5v18.6c.5.6 1 1.2 1.6 1.7 3 3.1 6.6 5.6 10.5 7.4v-32l14.1-4.9 14.4 5v31.7c3.8-1.8 7.2-4.2 10.1-7.1.7-.7 1.4-1.5 2-2.3V60.1l7 2.4c.3-1.8.4-3.6.4-5.5 0-2.5-.3-5-.8-7.4l-33.1-11.4L212 49.7z"/><path d="M291.2 90.5C298 81.1 302 69.6 302 57.1c0-31.4-25.5-57-57-57-31.4 0-57 25.5-57 57 0 31.4 25.5 57 57 57 12.5 0 24-4 33.4-10.8l19.6 19.6c4.7-3.8 8.9-8 12.7-12.7l-19.5-19.7zm-46.1 6.6c-22.1 0-40-17.9-40-40s17.9-40 40-40 40 17.9 40 40-17.9 40-40 40z"/></g></g></svg>