<?xml version="1.0" encoding="utf-8"?>
<!-- Generator: Adobe Illustrator 20.1.0, SVG Export Plug-In . SVG Version: 6.00 Build 0)  -->
<svg version="1.1" id="Layer_1" xmlns="http://www.w3.org/2000/svg" xmlns:xlink="http://www.w3.org/1999/xlink" x="0px" y="0px"
	 viewBox="0 0 113.4 113.4" style="enable-background:new 0 0 113.4 113.4;" xml:space="preserve">
<style type="text/css">
	.st0{fill:#FFFFFF;}
	.st1{fill:#31C0D9;}
</style>
<g>
	<path class="st0" d="M0,1.7C0,0.8,0.8,0,1.7,0h109.9c0.9,0,1.7,0.8,1.7,1.7v109.9c0,0.9-0.8,1.7-1.7,1.7H1.7
		c-0.9,0-1.7-0.8-1.7-1.7V1.7z"/>
	<g>
		<path class="st1" d="M19.6,40c-0.4-0.4-0.4-0.9,0-1.2l11.5-11.5c0.4-0.4,0.9-0.4,1.2,0l29,29c0.2,0.2,0.5,0.2,0.7,0l16.6-16.6
			c0.4-0.4,0.9-0.4,1.2,0L90,49.8c0.4,0.4,0.4,0.9,0,1.2L60.9,80.1c-0.4,0.4-0.9,0.4-1.2,0L19.6,40z"/>
	</g>
	<g>
		<path class="st1" d="M8.5,84.7c0-0.1,0.1-0.1,0.1-0.1h1.6c0.1,0,0.1,0.1,0.1,0.1v6.7c0,0.1,0,0.1,0.1,0.1h3.8c0.1,0,0.1,0,0.1,0.1
			v1.4c0,0.1,0,0.1-0.1,0.1H8.6c-0.1,0-0.1-0.1-0.1-0.1V84.7z"/>
		<path class="st1" d="M15.7,90v-5.3c0-0.1,0.1-0.1,0.1-0.1h1.6c0.1,0,0.1,0.1,0.1,0.1v5.4c0,1,0.6,1.6,1.4,1.6
			c0.9,0,1.4-0.6,1.4-1.6v-5.4c0-0.1,0.1-0.1,0.1-0.1h1.6c0.1,0,0.1,0.1,0.1,0.1V90c0,2.1-1.4,3.3-3.3,3.3
			C17.1,93.3,15.7,92.2,15.7,90z"/>
		<path class="st1" d="M24.8,84.7c0-0.1,0.1-0.1,0.1-0.1h1.6c0.1,0,0.1,0.1,0.1,0.1v8.3c0,0.1-0.1,0.1-0.1,0.1H25
			c-0.1,0-0.1-0.1-0.1-0.1V84.7z"/>
		<path class="st1" d="M29,88.9c0-1.3,0.1-1.8,0.2-2.3c0.4-1.4,1.6-2.1,3.2-2.1c1.6,0,2.6,0.8,3.1,1.8c0,0.1,0,0.2-0.1,0.2L34,87.1
			c-0.1,0-0.2,0-0.2-0.1c-0.3-0.6-0.8-0.9-1.5-0.9c-0.7,0-1.2,0.4-1.4,1c-0.1,0.3-0.1,0.7-0.1,1.8c0,1.1,0,1.5,0.1,1.8
			c0.2,0.6,0.7,0.9,1.4,0.9c0.6,0,1.2-0.3,1.4-0.9c0.1-0.2,0.1-0.5,0.1-0.8c0-0.1,0-0.1-0.1-0.1h-1.2c-0.1,0-0.1-0.1-0.1-0.1v-1.2
			c0-0.1,0-0.1,0.1-0.1h3c0.1,0,0.1,0,0.1,0.1v0.7c0,0.8-0.1,1.5-0.2,1.9c-0.4,1.4-1.6,2.1-3.1,2.1c-1.5,0-2.7-0.7-3.2-2.1
			C29,90.7,29,90.2,29,88.9z"/>
		<path class="st1" d="M38,84.7c0-0.1,0.1-0.1,0.1-0.1h1.6c0.1,0,0.1,0.1,0.1,0.1v8.3c0,0.1,0,0.1-0.1,0.1h-1.6
			c-0.1,0-0.1-0.1-0.1-0.1V84.7z"/>
		<path class="st1" d="M41.9,87.1v-2.4c0-0.1,0-0.1,0.1-0.1h1.2c0.1,0,0.1,0.1,0.1,0.1v1.3c0,0.1,0,0.2-0.1,0.3l-1,0.8
			c-0.1,0.1-0.1,0.1-0.2,0.1C42,87.3,41.9,87.2,41.9,87.1z"/>
		<path class="st1" d="M44.9,92.2c-0.1-0.1-0.1-0.1,0-0.2l1-1.1c0-0.1,0.1-0.1,0.2,0c0.6,0.5,1.3,0.9,2.2,0.9c0.9,0,1.4-0.4,1.4-1
			c0-0.5-0.3-0.8-1.3-1l-0.5-0.1c-1.7-0.2-2.7-1.1-2.7-2.6c0-1.6,1.2-2.6,3-2.6c1.1,0,2.2,0.3,2.9,0.9c0.1,0.1,0.1,0.1,0,0.2
			l-0.8,1.1c-0.1,0.1-0.1,0.1-0.2,0c-0.7-0.4-1.3-0.7-2-0.7c-0.8,0-1.1,0.4-1.1,0.9c0,0.5,0.4,0.8,1.3,0.9l0.5,0.1
			c1.8,0.2,2.7,1,2.7,2.6c0,1.6-1.1,2.7-3.4,2.7C46.9,93.3,45.6,92.8,44.9,92.2z"/>
		<path class="st1" d="M8.5,97c0-0.1,0.1-0.1,0.1-0.1h3.3c1.9,0,2.7,0.9,2.7,2.3c0,0.9-0.4,1.5-1,1.8v0c0.6,0.2,1.1,0.9,1.1,1.9
			c0,1.7-1.1,2.5-3,2.5H8.6c-0.1,0-0.1-0.1-0.1-0.1V97z M11.7,100.3c0.7,0,1.1-0.4,1.1-1c0-0.6-0.4-1-1.1-1h-1.3c0,0-0.1,0-0.1,0.1
			v1.9c0,0,0,0.1,0.1,0.1H11.7z M10.4,103.9h1.4c0.8,0,1.2-0.4,1.2-1.1c0-0.7-0.4-1.1-1.2-1.1h-1.4c0,0-0.1,0-0.1,0.1L10.4,103.9
			C10.3,103.9,10.3,103.9,10.4,103.9z"/>
		<path class="st1" d="M17,103.5c-0.2-0.6-0.2-1.1-0.2-2.3c0-1.3,0-1.8,0.2-2.3c0.4-1.4,1.6-2.1,3.1-2.1c1.5,0,2.7,0.7,3.1,2.1
			c0.2,0.6,0.2,1.1,0.2,2.3c0,1.3-0.1,1.8-0.2,2.3c-0.4,1.4-1.6,2.1-3.1,2.1C18.6,105.5,17.4,104.8,17,103.5z M21.5,103
			c0.1-0.3,0.1-0.7,0.1-1.8c0-1.1,0-1.5-0.1-1.8c-0.2-0.6-0.6-0.9-1.3-0.9c-0.7,0-1.2,0.4-1.4,0.9c-0.1,0.3-0.1,0.7-0.1,1.8
			c0,1.1,0,1.5,0.1,1.8c0.2,0.6,0.6,0.9,1.4,0.9C20.8,103.9,21.3,103.5,21.5,103z"/>
		<path class="st1" d="M30,105.4c-0.1,0-0.2,0-0.2-0.1l-1.5-2.6h0l-1.5,2.6c-0.1,0.1-0.1,0.1-0.2,0.1h-1.7c-0.1,0-0.1-0.1-0.1-0.1
			l2.6-4.3l-2.4-4c0-0.1,0-0.2,0.1-0.2h1.8c0.1,0,0.2,0,0.2,0.1l1.4,2.3h0l1.4-2.3c0.1-0.1,0.1-0.1,0.2-0.1h1.8
			c0.1,0,0.1,0.1,0.1,0.2l-2.4,4l2.6,4.3c0,0.1,0,0.1-0.1,0.1H30z"/>
	</g>
</g>
</svg>
