<svg width="1193" height="279" xmlns="http://www.w3.org/2000/svg" xmlns:xlink="http://www.w3.org/1999/xlink"><defs><path id="a" d="M0 280h1192.43V.975H0z"/></defs><g fill="none" fill-rule="evenodd"><path d="M319.343 221.678c-24.097 0-45.702-7.756-49.58-9.14-1.385-.554-2.216-1.108-2.216-3.047v-.27l2.77-13.02c.277-1.38 1.385-2.49 3.047-2.49.554 0 1.662.28 1.662.28 2.77.56 21.882 7.48 43.763 7.48 21.6 0 34.62-6.65 34.62-22.71 0-21.33-16.07-21.05-36.29-24.1-14.4-2.21-48.2-4.98-48.2-41.82s32.4-43.76 57.06-43.76c23.54 0 41.54 4.71 44.87 5.82 2.21.83 3.04 1.94 3.04 3.33v.56l-2.22 13.57c-.28 1.66-1.66 1.94-2.77 1.94h-.56c-3.88-.275-23.55-4.983-39.33-4.983-18.56 0-34.63 4.987-34.63 21.606 0 18.006 18 19.668 34.62 21.885 24.373 3.32 50.133 6.37 50.133 43.485 0 36.01-27.425 45.42-59.83 45.42m163.382-8.864c0 1.66-1.11 2.77-2.5 3.33-5.54 1.935-17.73 5.26-34.07 5.26-28.25 0-42.1-11.91-42.1-39.61V31.95c0-2.77 1.384-3.6 3.88-4.16l18.005-4.157h.28c2.213 0 3.6 1.67 3.6 3.88v45.15h44.87c2.215 0 3.876 1.67 3.876 4.16v11.91c0 2.22-1.66 3.88-4.15 3.88H429.8v90.575c0 14.403 7.476 18.28 21.88 18.28 8.586 0 18.003-2.215 23.543-3.323 0 0 1.386-.277 1.663-.277 1.384 0 2.49.83 3.046 2.77l2.77 11.63v.56m113.575-69.8l-48.473 8.03c-12.184 1.94-24.095 3.6-24.095 23.55 0 26.317 21.32 27.98 38.22 27.98 11.91 0 24.1-1.384 34.34-4.71v-54.84zm1.66 74.79c-8.31 1.94-21.606 3.88-36.563 3.88-25.205 0-64.26-1.385-64.26-46.255 0-35.18 19.666-38.5 44.32-42.655l54.845-9.14v-12.19c0-8.587-.56-15.236-9.7-18.836-4.99-1.94-12.74-2.77-24.38-2.77-20.78 0-39.89 5.262-50.42 7.754 0 0-1.38.276-1.94.276-1.103 0-2.21-.555-2.49-2.216l-2.77-12.74s-.275-1.39-.275-1.94c0-1.94 1.105-2.77 3.044-3.33 8.585-2.49 32.405-8.585 58.442-8.585 19.94 0 32.68 2.77 40.99 7.2 14.41 8.03 14.965 21.61 14.965 35.73v77.28c0 19.67-4.71 24.1-23.82 28.53zM738.33 38.46c-.276 2.216-1.385 3.324-3.6 3.324-.27 0-1.934-.276-1.934-.276-5.263-.83-13.572-2.77-23.82-2.77-7.203 0-12.742.83-16.62 3.88-3.324 2.49-5.262 6.923-5.262 14.124v15.93h40.163c2.216 0 3.878 1.66 3.878 4.152v11.91c0 2.493-1.66 3.88-3.877 3.88h-40.17v121.32c0 2.493-1.66 4.156-4.155 4.156H665.76c-2.493 0-4.43-1.665-4.43-4.158V92.602H649.3c-2.494 0-4.157-1.384-4.157-3.876v-11.91c0-2.492 1.663-4.155 4.156-4.155h12.03V58.12c0-27.144 13.57-39.332 41.82-39.332 15.51 0 27.42 2.77 33.24 4.156 2.21.555 3.6 1.94 3.6 3.878v.277l-1.66 11.35m99.48 0c-.28 2.21-1.39 3.32-3.6 3.32-.28 0-1.94-.28-1.94-.28-5.27-.83-13.58-2.77-23.82-2.77-7.21 0-12.74.83-16.62 3.88-3.33 2.49-5.27 6.92-5.27 14.12v15.93h40.16c2.21 0 3.87 1.66 3.87 4.15v11.91c0 2.49-1.66 3.88-3.88 3.88h-40.16v121.32c0 2.49-1.67 4.15-4.16 4.15h-17.17c-2.5 0-4.44-1.67-4.44-4.16V92.6h-12.03c-2.49 0-4.155-1.385-4.155-3.877v-11.91c0-2.492 1.66-4.155 4.153-4.155h12.04V58.12c0-27.144 13.57-39.332 41.822-39.332 15.51 0 27.42 2.77 33.24 4.156 2.216.555 3.6 1.94 3.6 3.878v.277l-1.66 11.35m38.535 179.62H858.9c-2.492 0-4.153-1.67-4.153-4.16V77.37c0-2.493 1.664-4.155 4.16-4.155h17.45c2.494 0 4.156 1.662 4.156 4.155v136.552c0 2.493-1.66 4.156-4.157 4.156zm-.55-160.11h-16.34c-2.77 0-4.71-1.94-4.71-4.71V39.01c0-3.045 1.94-4.71 4.71-4.71h16.34c2.77 0 4.43 1.665 4.43 4.71v14.25c0 3.048-1.66 4.71-4.43 4.71zm153.94 160.11h-17.17c-2.77 0-4.43-1.67-4.43-4.16V112.54c0-17.726-6.65-23.82-24.66-23.82-23.544 0-47.64 6.925-47.64 6.925v118.28c0 2.493-1.384 4.156-4.155 4.156H914.5c-2.77 0-4.43-1.66-4.43-4.15V97.87c0-10.804 1.66-15.51 16.068-20.22 14.4-4.71 40.99-8.588 58.72-8.588 33.24 0 49.03 9.972 49.03 40.44v104.42c0 2.493-1.39 4.156-4.16 4.156" fill="#FFF"/><g transform="translate(0 -1)"><mask id="b" fill="#fff"><use xlink:href="#a"/></mask><path d="M1126.5 89.726c-37.39 0-39.05 21.882-39.05 56.78 0 34.625 1.66 56.507 39.05 56.507 37.67 0 39.34-21.882 39.34-56.506 0-34.9-1.67-56.78-39.34-56.78zm0 132.952c-58.72 0-65.92-34.347-65.92-76.17 0-42.1 7.2-76.448 65.92-76.448 59 0 65.93 34.347 65.93 76.447 0 41.824-6.93 76.17-65.93 76.17z" fill="#FFF" mask="url(#b)"/><path d="M195.875 85.6c-.468-2.978-4.035-5.73-7.872-5.993-19.52-1.39-39.045-.543-58.575.92-3.854.29-6.047-1.764-4.912-4.57 14.74-24.122 26.623-49.107 31.976-70.245.137-2.49-2.203-4.14-5.08-4.384-6.9-.583-13.977-.438-20.855.39-2.873.346-7.09 1.245-9.12 3.057-26.023 22.255-64.543 51.74-108.63 65.9-3.468 1.044-6.59 4.63-7.125 7.478C1.652 99.57-.235 121.27.022 143.645c.035 2.973 3.287 5.55 7.216 5.74 62.577 2.78 125.802-33.955 184.25-43.164 3.738-.65 6.69-2.88 6.35-5.88-.553-4.92-1.208-9.84-1.963-14.74" fill="#26A848" mask="url(#b)"/><path d="M11.64 198.65c19.52 3.03 39.045 3.208 58.572 2.294 3.856-.185 6.048 1.918 4.913 4.698-14.74 23.77-26.622 48.186-31.976 69.06-.14 2.483 2.21 4.303 5.08 4.627 7.8.87 12.7.77 20.85.38 2.89-.14 7.14-1.01 9.12-2.84 27.74-24.78 61.74-54 108.63-69.28 3.56-1.08 6.58-5.18 7.12-8.07 4.57-24.67 6.38-50.91 5.44-76.36-.11-2.99-3.51-5.7-7.3-5.06-59.36 9.46-123.19 47.34-184.62 44.54-3.88-.17-6.84 2.18-6.58 5.21.68 8.01 1.64 16.05 2.86 24.07.47 3.02 4.03 6.11 7.87 6.7z" fill="#2A6A37" mask="url(#b)"/></g></g></svg>